<svg xmlns="http://www.w3.org/2000/svg" width="226" height="66" viewBox="0 0 226 66" fill="none"><path d="M59.975 61.4704H62.3633V56.4378H66.1676V54.5442H62.3633V51.4905H67.3276V49.5628H59.975V61.4704ZM74.1391 61.4704H76.5274V49.5628H74.1391V61.4704ZM91.8012 49.5457V57.7343L86.3933 49.5457H84.005V61.4704H86.3933V53.2989L91.8012 61.4704H94.1896V49.5457H91.8012ZM109.754 61.4704H112.279L107.997 49.5457H105.216L100.934 61.4704H103.442L104.227 59.2015H108.969L109.754 61.4704ZM108.321 57.2908H104.875L106.598 52.3094L108.321 57.2908ZM126.793 49.5457V57.7343L121.385 49.5457H118.997V61.4704H121.385V53.2989L126.793 61.4704H129.182V49.5457H126.793ZM136.08 55.4995C136.08 59.065 138.69 61.5728 142.119 61.5728C144.763 61.5728 146.913 60.1739 147.714 57.7173H144.968C144.405 58.8773 143.381 59.4403 142.102 59.4403C140.021 59.4403 138.536 57.9049 138.536 55.4995C138.536 53.0771 140.021 51.5588 142.102 51.5588C143.381 51.5588 144.405 52.1217 144.968 53.2647H147.714C146.913 50.8252 144.763 49.4093 142.119 49.4093C138.69 49.4093 136.08 51.9341 136.08 55.4995ZM161.781 49.5457H154.872V61.4704H161.781V59.5256H157.261V56.3696H161.27V54.476H157.261V51.4905H161.781V49.5457Z" fill="#F8F8FA"></path><path d="M7.48273 38.8574C6.18904 38.8574 5.38048 37.4569 6.02733 36.3365L16.399 18.3723C17.0458 17.2519 18.663 17.2519 19.3098 18.3723L29.6815 36.3365C30.3283 37.4569 29.5197 38.8574 28.226 38.8574L7.48273 38.8574Z" fill="#FC7753"></path><path d="M45.8273 9.59942C47.121 9.59942 47.9296 10.9999 47.2827 12.1203L36.9111 30.0845C36.2642 31.2049 34.6471 31.2049 34.0003 30.0845L23.6286 12.1202C22.9818 10.9999 23.7903 9.59941 25.084 9.59941L45.8273 9.59942Z" fill="#FC7753"></path><path d="M57.4894 26.7104C57.4894 33.3501 62.1056 37.9978 68.6504 37.9978C73.9305 37.9978 77.9142 35.0574 79.1789 30.2516H73.2349C72.318 32.1486 70.6422 33.0971 68.5871 33.0971C65.2673 33.0971 62.9908 30.631 62.9908 26.7104C62.9908 22.7899 65.2673 20.3237 68.5871 20.3237C70.6422 20.3237 72.318 21.2722 73.2349 23.1693H79.1789C77.9142 18.3634 73.9305 15.3914 68.6504 15.3914C62.1056 15.3914 57.4894 20.0708 57.4894 26.7104ZM99.753 29.0185C99.753 23.4222 95.7692 19.9443 90.5839 19.9443C85.4303 19.9443 81.4149 23.4222 81.4149 29.0185C81.4149 34.6147 85.3354 38.0927 90.5207 38.0927C95.7059 38.0927 99.753 34.6147 99.753 29.0185ZM86.9163 29.0185C86.9163 26.0148 88.6236 24.6237 90.5839 24.6237C92.481 24.6237 94.2515 26.0148 94.2515 29.0185C94.2515 31.9905 92.4493 33.4133 90.5207 33.4133C88.5604 33.4133 86.9163 31.9905 86.9163 29.0185ZM102.621 37.8397H108.028V20.1972H102.621V37.8397ZM105.34 18.3634C107.237 18.3634 108.534 17.0671 108.534 15.4546C108.534 13.8105 107.237 12.5142 105.34 12.5142C103.412 12.5142 102.115 13.8105 102.115 15.4546C102.115 17.0671 103.412 18.3634 105.34 18.3634ZM124.119 37.8397H129.494V27.5325C129.494 22.7899 126.774 20.0075 122.696 20.0075C120.324 20.0075 118.427 21.0509 117.352 22.5369V20.1972H111.946V37.8397H117.352V28.2597C117.352 25.8567 118.68 24.5288 120.736 24.5288C122.791 24.5288 124.119 25.8567 124.119 28.2597V37.8397ZM147.573 32.7177C147.478 26.1413 137.93 28.1332 137.93 25.3192C137.93 24.4656 138.626 23.9597 139.89 23.9597C141.408 23.9597 142.325 24.7501 142.483 25.9516H147.478C147.131 22.4737 144.601 19.9443 140.048 19.9443C135.432 19.9443 132.871 22.4104 132.871 25.4141C132.871 31.8957 142.483 29.8405 142.483 32.6861C142.483 33.4765 141.756 34.1089 140.364 34.1089C138.878 34.1089 137.772 33.2868 137.645 32.0537H132.302C132.555 35.4684 135.717 38.0927 140.428 38.0927C144.854 38.0927 147.573 35.7846 147.573 32.7177ZM149.806 29.0185C149.806 34.6147 153.474 38.0927 158.659 38.0927C163.085 38.0927 166.215 35.5317 167.132 31.453H161.378C160.904 32.7493 160.05 33.4765 158.564 33.4765C156.635 33.4765 155.307 31.9589 155.307 29.0185C155.307 26.0781 156.635 24.5604 158.564 24.5604C160.05 24.5604 160.935 25.3509 161.378 26.5839H167.132C166.215 22.3788 163.085 19.9443 158.659 19.9443C153.474 19.9443 149.806 23.4538 149.806 29.0185ZM175.431 29.6508C175.431 26.6156 176.917 25.7303 179.478 25.7303H180.964V20.0075C178.593 20.0075 176.664 21.2722 175.431 23.1376V20.1972H170.024V37.8397H175.431V29.6508ZM182.473 28.9869C182.473 34.5515 185.919 38.0927 190.219 38.0927C192.844 38.0927 194.709 36.8912 195.689 35.3419V37.8397H201.096V20.1972H195.689V22.695C194.741 21.1458 192.875 19.9443 190.251 19.9443C185.919 19.9443 182.473 23.4222 182.473 28.9869ZM195.689 29.0185C195.689 31.8324 193.887 33.3817 191.832 33.3817C189.808 33.3817 187.975 31.8008 187.975 28.9869C187.975 26.1729 189.808 24.6553 191.832 24.6553C193.887 24.6553 195.689 26.2045 195.689 29.0185ZM210.414 22.695V20.1972H205.007V46.2499H210.414V35.3736C211.394 36.8596 213.259 38.0927 215.852 38.0927C220.184 38.0927 223.63 34.5515 223.63 28.9869C223.63 23.4222 220.184 19.9443 215.852 19.9443C213.259 19.9443 211.394 21.1458 210.414 22.695ZM218.128 28.9869C218.128 31.8008 216.295 33.3817 214.239 33.3817C212.216 33.3817 210.382 31.8324 210.382 29.0185C210.382 26.2045 212.216 24.6553 214.239 24.6553C216.295 24.6553 218.128 26.1729 218.128 28.9869Z" fill="white"></path></svg>